<svg width="14" height="14" viewBox="0 0 14 14" fill="none" xmlns="http://www.w3.org/2000/svg">
<path fill-rule="evenodd" clip-rule="evenodd" d="M2 11.2256C2 11.3946 2.05268 11.5382 2.12161 11.6278C2.18832 11.7146 2.2465 11.7256 2.26923 11.7256L10.7308 11.7256C10.7535 11.7256 10.8117 11.7146 10.8784 11.6278C10.9473 11.5382 11 11.3946 11 11.2256L11 7.22559C11 6.94944 11.2239 6.72559 11.5 6.72559C11.7761 6.72559 12 6.94944 12 7.22559L12 11.2256C12 11.587 11.8906 11.9521 11.671 12.2375C11.4492 12.5259 11.1161 12.7256 10.7308 12.7256L2.26923 12.7256C1.88394 12.7256 1.5508 12.5259 1.32899 12.2375C1.10941 11.9521 1 11.587 1 11.2256L1 4.22559C1 3.86414 1.10941 3.49908 1.32899 3.21362C1.5508 2.92527 1.88394 2.72559 2.26923 2.72559L6.80769 2.72559C7.08383 2.72559 7.30769 2.94944 7.30769 3.22559C7.30769 3.50173 7.08383 3.72559 6.80769 3.72559L2.26923 3.72559C2.2465 3.72559 2.18832 3.73661 2.12161 3.82333C2.05268 3.91295 2 4.0566 2 4.22559L2 11.2256Z" fill="#E9C185"/>
<path d="M9.24605 1.60705C8.96999 1.6007 8.74104 1.81935 8.73469 2.09542C8.72834 2.37149 8.94699 2.60044 9.22306 2.60678L10.8439 2.64406L6.65467 6.64499C6.45497 6.83571 6.44769 7.15221 6.63841 7.35191C6.82913 7.55161 7.14563 7.55889 7.34533 7.36816L11.5346 3.36723L11.4973 4.98813C11.491 5.2642 11.7096 5.49314 11.9857 5.49949C12.2618 5.50584 12.4907 5.28719 12.4971 5.01112C12.4971 5.01112 12.5578 3.288 12.5621 2.18344C12.563 1.95835 12.5621 1.60705 12.5621 1.60705" fill="#E9C185"/>
</svg>
