<svg width="550" height="452" viewBox="0 0 550 452" fill="none" xmlns="http://www.w3.org/2000/svg">
<g clip-path="url(#clip0_7_42)">
<g clip-path="url(#clip1_7_42)">
<path d="M516.732 135.55C514.244 137.306 512.69 140.172 512.448 143.138C509.573 142.372 506.352 142.876 503.864 144.632C499.46 147.74 498.49 153.71 501.66 158.201C505.55 163.713 513.581 164.773 525.76 166.4L527.287 166.6C528.355 166.739 529.353 166.031 529.576 164.978L529.896 163.459C532.454 151.453 534.145 143.531 530.255 138.02C527.086 133.529 521.135 132.442 516.732 135.55Z" fill="#FFEA00"/>
<path d="M510.733 406.22H457.339L500.398 386.859C504.245 385.118 507.246 381.924 508.743 377.976C510.24 374.028 510.112 369.648 508.386 365.795L469.081 278.454L452.21 240.949L396.043 116.085C395.185 114.176 393.96 112.456 392.436 111.022C390.913 109.587 389.121 108.467 387.164 107.726C385.208 106.984 383.124 106.635 381.032 106.699C378.94 106.763 376.882 107.239 374.974 108.099L312.288 136.28C310.263 137.185 308.453 138.509 306.977 140.164L285.022 47.2787C284.543 45.2417 283.667 43.3191 282.445 41.6209C281.222 39.9227 279.676 38.4823 277.896 37.3821C276.116 36.2819 274.136 35.5436 272.07 35.2094C270.004 34.8752 267.892 34.9517 265.856 35.4345L215.617 47.2961C211.508 48.2742 207.955 50.8418 205.737 54.4356C203.52 58.0293 202.818 62.3557 203.787 66.4658L219.797 134.246C218.078 133.624 216.263 133.304 214.435 133.299H140.64C138.693 133.304 136.763 133.666 134.947 134.368V85.4009C134.942 80.9105 133.156 76.6053 129.98 73.4301C126.804 70.2549 122.498 68.4691 118.007 68.4645H51.0788C48.8519 68.4622 46.6463 68.8984 44.588 69.7483C42.5297 70.5982 40.659 71.8451 39.0827 73.4178C37.5064 74.9905 36.2553 76.8582 35.401 78.9143C34.5467 80.9703 34.1058 83.1745 34.1035 85.4009V397.018C34.1013 400.297 35.0591 403.505 36.8589 406.246H26.8892C23.0015 406.34 19.3046 407.95 16.5882 410.732C13.8717 413.514 12.3511 417.248 12.3511 421.136C12.3511 425.024 13.8717 428.758 16.5882 431.54C19.3046 434.322 23.0015 435.932 26.8892 436.026H510.733C514.621 435.932 518.318 434.322 521.034 431.54C523.751 428.758 525.271 425.024 525.271 421.136C525.271 417.248 523.751 413.514 521.034 410.732C518.318 407.95 514.621 406.34 510.733 406.246V406.22ZM364.631 384.052L357.364 353.351L350.924 326.109L318.503 188.966L360.467 282.234L377.338 319.73L416.261 406.246H340.102L352.784 403.257C356.898 402.275 360.456 399.702 362.676 396.102C364.897 392.502 365.6 388.169 364.631 384.052ZM461.841 287.317L499.042 369.992C499.663 371.368 499.712 372.934 499.179 374.347C498.647 375.759 497.575 376.903 496.2 377.526L433.514 405.725C432.134 406.341 430.566 406.385 429.154 405.848C427.741 405.31 426.599 404.235 425.978 402.857L388.777 320.165L389.646 319.756L461.841 287.317ZM313.496 148.784C313.761 148.085 314.161 147.444 314.674 146.9C315.187 146.355 315.803 145.918 316.486 145.613L379.181 117.423C379.914 117.094 380.707 116.923 381.51 116.919C382.2 116.917 382.884 117.044 383.527 117.292C384.229 117.555 384.871 117.955 385.418 118.468C385.964 118.981 386.402 119.598 386.708 120.282L440.781 240.471L375.539 269.807L367.716 273.335L313.609 153.181C313.297 152.493 313.126 151.75 313.107 150.994C313.088 150.239 313.22 149.488 313.496 148.784ZM309.733 341.064L342.136 333.399L346.23 350.718L305.126 360.425L284.926 365.213L280.841 347.911L309.733 341.064ZM228.203 70.1416L264.822 61.4952C265.478 61.3362 266.159 61.3083 266.827 61.4132C267.494 61.5182 268.134 61.7538 268.709 62.1067C269.285 62.4595 269.786 62.9226 270.182 63.4694C270.578 64.0161 270.863 64.6357 271.019 65.2927L285.795 127.746C285.95 128.4 285.974 129.078 285.867 129.742C285.759 130.405 285.522 131.041 285.168 131.612C284.815 132.184 284.352 132.68 283.806 133.072C283.26 133.464 282.643 133.745 281.988 133.899L245.369 142.589C244.984 142.678 244.591 142.724 244.196 142.728C243.042 142.729 241.922 142.339 241.018 141.623C240.113 140.907 239.478 139.905 239.215 138.782L224.439 76.3287C224.278 75.6754 224.248 74.9967 224.35 74.3317C224.453 73.6667 224.686 73.0284 225.035 72.4535C225.385 71.8787 225.845 71.3785 226.388 70.9818C226.932 70.585 227.548 70.2995 228.203 70.1416ZM134.912 396.991V149.201C134.915 147.692 135.515 146.245 136.582 145.176C137.649 144.108 139.095 143.506 140.605 143.501H214.435C215.946 143.503 217.395 144.105 218.464 145.173C219.533 146.242 220.134 147.69 220.136 149.201V397.999C220.134 399.51 219.532 400.958 218.463 402.025C217.394 403.092 215.945 403.691 214.435 403.691H140.64C139.131 403.689 137.684 403.089 136.617 402.022C135.55 400.955 134.949 399.508 134.947 397.999L134.912 396.991ZM44.3426 147.029H124.673V157.857H44.3426V147.029ZM44.3426 168.084H124.673V192.155H44.3426V168.084ZM44.3426 322.476H124.673V333.295H44.3426V322.476ZM230.349 397.999V178.955L269.654 345.27L276.095 372.504L283.353 403.222C283.592 404.244 283.933 405.24 284.37 406.194H228.055C229.564 403.727 230.363 400.891 230.367 397.999H230.349Z" fill="#A9CB71"/>
<path d="M498.57 83C493.462 83 488.559 85.4394 485.359 89.2943C482.159 85.4394 477.256 83 472.147 83C463.105 83 456 90.2882 456 99.564C456 110.948 465.982 120.224 481.102 134.318L483.002 136.079C484.33 137.31 486.384 137.306 487.707 136.07L489.616 134.288C504.735 120.224 514.717 110.948 514.717 99.564C514.717 90.2882 507.613 83 498.57 83Z" fill="#FF0F0F"/>
<path d="M479.894 168.766C476.995 167.834 473.77 168.316 471.255 169.907C470.138 167.148 467.799 164.878 464.9 163.946C459.768 162.296 454.415 165.112 452.732 170.345C450.668 176.767 454.65 183.821 460.674 194.531L461.433 195.871C461.963 196.808 463.129 197.18 464.105 196.724L465.511 196.067C476.642 190.891 483.988 187.479 486.053 181.056C487.735 175.823 485.025 170.415 479.894 168.766Z" fill="#FFB40F"/>
<path fill-rule="evenodd" clip-rule="evenodd" d="M358.129 216.035C353.509 210.645 349.702 204.608 346.83 198.116C343.293 190.453 341.159 182.218 340.528 173.802C340.362 171.281 340.388 168.751 340.606 166.234C341.571 155.423 346.178 147.646 353.575 144.318C368.012 137.827 387.656 151.278 398.303 174.941C403.171 185.751 405.37 197.074 404.501 206.815C404.256 209.72 403.672 212.587 402.762 215.357L402.554 216.009C402.484 216.192 402.401 216.395 402.326 216.577C402.269 216.715 402.217 216.841 402.18 216.939C402.151 217.014 402.123 217.09 402.095 217.166C402.039 217.319 401.983 217.472 401.919 217.616C401.745 218.025 401.554 218.416 401.363 218.807C401.311 218.911 401.267 219.024 401.206 219.137C401.146 219.249 401.083 219.365 401.02 219.483C400.857 219.787 400.686 220.105 400.511 220.406C400.485 220.463 400.456 220.518 400.424 220.571C400.198 220.953 399.955 221.318 399.711 221.683L399.564 221.918C398.724 223.136 397.757 224.26 396.678 225.272C396.664 225.286 396.649 225.306 396.635 225.326C396.605 225.368 396.574 225.411 396.539 225.411C395.805 226.088 395.017 226.704 394.183 227.253C393.809 227.497 393.427 227.723 393.036 227.949L392.897 228.035C392.454 228.27 392.002 228.496 391.541 228.705C391.28 228.826 391.028 228.931 390.767 229.026L390.611 229.096C390.489 229.145 390.364 229.188 390.24 229.23C390.169 229.255 390.098 229.279 390.029 229.304L389.663 229.435L389.055 229.608L388.699 229.721L388.168 229.843L387.725 229.947L387.178 230.051C387.127 230.06 387.078 230.072 387.028 230.084C386.934 230.107 386.84 230.13 386.743 230.13C386.677 230.141 386.612 230.152 386.546 230.164C386.302 230.208 386.06 230.251 385.813 230.251H385.743L385.204 230.295C384.709 230.356 384.214 230.356 383.71 230.356H383.709C378.242 230.356 372.358 228.157 366.543 223.864C366.056 223.499 365.561 223.126 365.083 222.735C363.084 221.135 361.205 219.393 359.459 217.521C359.007 217.034 358.564 216.539 358.129 216.035ZM368.544 177.367C369.388 174.513 371.498 172.026 374.293 170.818C379.24 168.68 384.841 170.964 387.022 176.01C389.696 182.198 386.423 189.597 381.463 200.807L381.451 200.835L380.825 202.256C380.392 203.241 379.269 203.729 378.253 203.373L376.799 202.865L376.71 202.833C365.174 198.759 357.564 196.072 354.894 189.895C352.713 184.85 354.887 179.205 359.835 177.067C362.63 175.859 365.886 176.026 368.544 177.367Z" fill="#A9CB71"/>
<path fill-rule="evenodd" clip-rule="evenodd" d="M204.265 174.923H150.792C147.965 174.923 145.673 177.215 145.673 180.042V367.159C145.673 369.986 147.965 372.278 150.792 372.278H204.265C207.092 372.278 209.385 369.986 209.385 367.159V180.042C209.385 177.215 207.092 174.923 204.265 174.923ZM170.397 339V317.789H185.544V322.301H175.964V326.139H184.753V330.65H175.964V334.488H185.515V339H170.397ZM177.897 296.906L173.444 281.789H167.146L174.206 303H181.794L188.825 281.789H182.526L178.073 296.906H177.897ZM188.928 256.395C188.928 263.455 184.416 267.293 178.674 267.293C172.873 267.293 168.391 263.426 168.391 256.395C168.391 249.334 172.873 245.496 178.674 245.496C184.416 245.496 188.928 249.334 188.928 256.395ZM183.186 256.395C183.186 252.498 181.574 250.359 178.674 250.359C175.744 250.359 174.133 252.498 174.133 256.395C174.133 260.291 175.744 262.43 178.674 262.43C181.574 262.43 183.186 260.291 183.186 256.395ZM171.555 209.789V231H185.764V226.488H177.121V209.789H171.555Z" fill="#A9CB71"/>
</g>
</g>
<defs>
<clipPath id="clip0_7_42">
<rect width="550" height="452" fill="white"/>
</clipPath>
<clipPath id="clip1_7_42">
<rect width="525" height="401" fill="white" transform="translate(12 35)"/>
</clipPath>
</defs>
</svg>
